# xmcd CD database file
#
# Track frame offsets:
#	150
#	27341
#	41334
#	57546
#	67784
#	91463
#	112595
#	129745
#	147565
#	165153
#	170238
#	202166
#
# Disc length: 3695 seconds
#
# Revision: 0
# Processed by: cddbd v1.4PL0 Copyright (c) Steve Scherf et al.
# Submitted via: CDex 1.50
#
DISCID=a70e6d0c
DTITLE=Test Type Trio - Test Type Trio
DYEAR=2001
DGENRE=Jazz
TTITLE0=Can We Make it Work Harder?
TTITLE1=Monkey On My Back
TTITLE2=Bud
TTITLE3=Interlude
TTITLE4=New Glitch
TTITLE5=Kasper
TTITLE6=Voodoo Circuit
TTITLE7=Phoric
TTITLE8=Rep-Resent
TTITLE9=Deljoy
TTITLE10=Jungle Opus 9
TTITLE11=Adlibitum
EXTD=YEAR: 2001
EXTT0=
EXTT1=
EXTT2=
EXTT3=
EXTT4=
EXTT5=
EXTT6=
EXTT7=
EXTT8=
EXTT9=
EXTT10=
EXTT11=
PLAYORDER=
